<?xml version="1.0" encoding="UTF-8" standalone="no"?>
<svg width="382px" height="430px" viewBox="0 0 382 430" version="1.1" xmlns="http://www.w3.org/2000/svg" xmlns:xlink="http://www.w3.org/1999/xlink" xmlns:sketch="http://www.bohemiancoding.com/sketch/ns">
    <defs>
        <path id="path-1" d="M30.055,10.663 L30.04,10.663 L30.04,10.662 C30.04,5.142 25.566,0.669 20.046,0.669 C14.526,0.669 10.052,5.143 10.052,10.662 L0.703,352.157 L0.719,352.157 C0.72,360.256 7.281,366.817 15.379,366.817 C23.478,366.817 30.039,360.255 30.04,352.157 L30.055,352.157 L30.055,10.663 L30.055,10.663 Z"></path>
        <linearGradient x1="0%" y1="50.0000931%" x2="99.9998689%" y2="50.0000931%" id="linearGradient-3">
            <stop stop-color="#FED00F" offset="24.48%"></stop>
            <stop stop-color="#E87426" offset="77.94%"></stop>
        </linearGradient>
        <path id="path-4" d="M29.339,15.12 C29.339,7.018 22.772,0.451 14.669,0.451 C6.567,0.451 0,7.019 0,15.12 L0,15.121 L0,15.121 L0,218.363 C0,226.466 6.567,233.033 14.669,233.033 C22.772,233.033 29.339,226.466 29.339,218.363 L29.339,15.12 L29.339,15.12 L29.339,15.12 L29.339,15.12 Z"></path>
        <path id="path-6" d="M30.019,15.233 C30.019,7.131 23.452,0.564 15.349,0.564 C7.247,0.564 0.68,7.131 0.68,15.233 L0.68,15.234 L0.678,15.234 L0.678,117.955 L30.017,117.955 L30.017,15.272 C30.017,15.259 30.019,15.246 30.019,15.233 L30.019,15.233 Z"></path>
        <path id="path-8" d="M30.017,139.242 L30.017,0.294 L0.678,0.294 L0.678,139.261 L0.679,139.261 L0.679,139.262 C0.679,147.364 7.246,153.932 15.349,153.932 C23.451,153.932 30.019,147.364 30.018,139.262 C30.018,139.255 30.017,139.249 30.017,139.242 L30.017,139.242 Z"></path>
        <path id="path-10" d="M15.024,0.706 C6.922,0.706 0.355,7.273 0.355,15.375 L0.355,354.148 L0.355,354.148 C0.356,362.251 6.922,368.817 15.024,368.817 C23.127,368.817 29.693,362.251 29.694,354.148 L29.694,354.148 L29.694,15.375 C29.694,7.273 23.127,0.706 15.024,0.706 L15.024,0.706 Z"></path>
        <path id="path-12" d="M0.377,15.233 C0.377,7.131 6.944,0.564 15.047,0.564 C23.149,0.564 29.716,7.131 29.716,15.233 L29.716,15.234 L29.718,15.234 L29.718,117.955 L0.379,117.955 L0.379,15.272 C0.379,15.259 0.377,15.246 0.377,15.233 L0.377,15.233 Z"></path>
        <path id="path-14" d="M73.727,0.451 C65.624,0.451 59.057,7.018 59.057,15.12 L59.057,15.121 L59.057,113.294 L0.379,113.294 L0.379,252.242 C0.379,252.249 0.378,252.255 0.378,252.262 C0.377,260.364 6.945,266.932 15.047,266.932 C23.15,266.932 29.717,260.364 29.717,252.262 L29.717,252.261 L29.718,252.261 L29.718,142.633 L59.057,142.633 L59.057,218.363 C59.057,226.466 65.624,233.033 73.727,233.033 C81.829,233.033 88.396,226.466 88.396,218.363 L88.396,15.121 L88.396,15.12 C88.396,7.019 81.828,0.451 73.727,0.451 L73.727,0.451 Z"></path>
        <path id="path-16" d="M40.056,409.316 L19.595,8.879 L19.591,8.879 C19.125,3.898 14.938,0 9.835,0 C4.422,0 0.033,4.389 0.033,9.803 L0.033,409.75 C0.033,420.801 8.992,429.761 20.044,429.761 C31.097,429.761 40.056,420.801 40.056,409.75 C40.056,409.604 40.037,409.462 40.035,409.316 L40.056,409.316 L40.056,409.316 Z"></path>
    </defs>
    <g id="Page-1" stroke="none" stroke-width="1" fill="none" fill-rule="evenodd" sketch:type="MSPage">
        <g id="HiveLogo" sketch:type="MSLayerGroup">
            <g id="Clipped" transform="translate(234.000000, 33.000000)">
                <mask id="mask-2" sketch:name="SVGID_1_" fill="white">
                    <use xlink:href="#path-1"></use>
                </mask>
                <g id="SVGID_1_"></g>
                <rect id="Rectangle-path" fill="url(#linearGradient-3)" sketch:type="MSShapeGroup" mask="url(#mask-2)" x="-234" y="-33" width="381.396" height="429.761"></rect>
            </g>
            <g id="Clipped" transform="translate(0.000000, 99.000000)">
                <mask id="mask-5" sketch:name="SVGID_4_" fill="white">
                    <use xlink:href="#path-4"></use>
                </mask>
                <g id="SVGID_4_"></g>
                <rect id="Rectangle-path" fill="url(#linearGradient-3)" sketch:type="MSShapeGroup" mask="url(#mask-5)" x="0" y="-99" width="381.396" height="429.761"></rect>
            </g>
            <g id="Clipped" transform="translate(58.000000, 65.000000)">
                <mask id="mask-7" sketch:name="SVGID_7_" fill="white">
                    <use xlink:href="#path-6"></use>
                </mask>
                <g id="SVGID_7_"></g>
                <rect id="Rectangle-path" fill="url(#linearGradient-3)" sketch:type="MSShapeGroup" mask="url(#mask-7)" x="-58" y="-65" width="381.396" height="429.761"></rect>
            </g>
            <g id="Clipped" transform="translate(58.000000, 212.000000)">
                <mask id="mask-9" sketch:name="SVGID_10_" fill="white">
                    <use xlink:href="#path-8"></use>
                </mask>
                <g id="SVGID_10_"></g>
                <rect id="Rectangle-path" fill="url(#linearGradient-3)" sketch:type="MSShapeGroup" mask="url(#mask-9)" x="-58" y="-212" width="381.396" height="429.761"></rect>
            </g>
            <g id="Clipped" transform="translate(117.000000, 31.000000)">
                <mask id="mask-11" sketch:name="SVGID_13_" fill="white">
                    <use xlink:href="#path-10"></use>
                </mask>
                <g id="SVGID_13_"></g>
                <rect id="Rectangle-path" fill="url(#linearGradient-3)" sketch:type="MSShapeGroup" mask="url(#mask-11)" x="-117" y="-31" width="381.396" height="429.761"></rect>
            </g>
            <g id="Clipped" transform="translate(293.000000, 65.000000)">
                <mask id="mask-13" sketch:name="SVGID_16_" fill="white">
                    <use xlink:href="#path-12"></use>
                </mask>
                <g id="SVGID_16_"></g>
                <rect id="Rectangle-path" fill="url(#linearGradient-3)" sketch:type="MSShapeGroup" mask="url(#mask-13)" x="-293" y="-65" width="381.396" height="429.761"></rect>
            </g>
            <g id="Clipped" transform="translate(293.000000, 99.000000)">
                <mask id="mask-15" sketch:name="SVGID_19_" fill="white">
                    <use xlink:href="#path-14"></use>
                </mask>
                <g id="SVGID_19_"></g>
                <rect id="Rectangle-path" fill="url(#linearGradient-3)" sketch:type="MSShapeGroup" mask="url(#mask-15)" x="-293" y="-99" width="381.396" height="429.761"></rect>
            </g>
            <g id="Clipped" transform="translate(176.000000, 0.000000)">
                <mask id="mask-17" sketch:name="SVGID_22_" fill="white">
                    <use xlink:href="#path-16"></use>
                </mask>
                <g id="SVGID_22_"></g>
                <rect id="Rectangle-path" fill="url(#linearGradient-3)" sketch:type="MSShapeGroup" mask="url(#mask-17)" x="-176" y="0" width="381.396" height="429.761"></rect>
            </g>
        </g>
    </g>
</svg>